# xmcd CD database file
#
# Track frame offsets:
#	150
#	19310
#	34587
#	55327
#	76135
#	100860
#	116852
#	135352
#	153430
#	171840
#	182720
#
# Disc length: 2686 seconds
#
# Revision: 2
# Processed by: cddbd v1.5.1PL0 Copyright (c) Steve Scherf et al.
# Submitted via: CDex 1.51
#
DISCID=870a7c0b
DTITLE=Tammy Trent - Tammy Trent
DYEAR=1995
DGENRE=Contemporary Christian
TTITLE0=Emotional
TTITLE1=Your Love Is 4 Always
TTITLE2=The Way To Love
TTITLE3=Starting To Believe
TTITLE4=You've Got A Friend
TTITLE5=Someone 2 Love
TTITLE6=Supposed To Be
TTITLE7=Hear My Heart
TTITLE8=Love's Not Far
TTITLE9=You've Got A Friend
TTITLE10=Let It Go
EXTD=YEAR: 1995
EXTT0=
EXTT1=
EXTT2=
EXTT3=
EXTT4=
EXTT5=
EXTT6=
EXTT7=
EXTT8=
EXTT9=
EXTT10=
PLAYORDER=
